<mxfile host="app.diagrams.net" agent="Mozilla/5.0 (Windows NT 10.0; Win64; x64) AppleWebKit/537.36 (KHTML, like Gecko) Chrome/132.0.0.0 Safari/537.36" version="26.0.12">
  <diagram name="Página-1" id="Ogjw7mfiGQgQhLG7W4vd">
    <mxGraphModel dx="1593" dy="820" grid="1" gridSize="10" guides="1" tooltips="1" connect="1" arrows="1" fold="1" page="1" pageScale="1" pageWidth="827" pageHeight="1169" math="0" shadow="0">
      <root>
        <mxCell id="0" />
        <mxCell id="1" parent="0" />
        <mxCell id="NIhlScBV0QvWfO8qGJx1-2" value="Cadastro dos prestadores de serviços" style="rounded=0;whiteSpace=wrap;html=1;fillColor=none;" vertex="1" parent="1">
          <mxGeometry x="110" y="60" width="1310" height="20" as="geometry" />
        </mxCell>
        <mxCell id="NIhlScBV0QvWfO8qGJx1-3" value="" style="rounded=0;whiteSpace=wrap;html=1;fillColor=none;" vertex="1" parent="1">
          <mxGeometry x="110" y="80" width="1310" height="580" as="geometry" />
        </mxCell>
        <mxCell id="NIhlScBV0QvWfO8qGJx1-1" value="Prenchimento dos dados" style="ellipse;whiteSpace=wrap;html=1;aspect=fixed;fillColor=none;" vertex="1" parent="1">
          <mxGeometry x="188.12" y="140" width="90" height="90" as="geometry" />
        </mxCell>
        <mxCell id="NIhlScBV0QvWfO8qGJx1-5" value="Prestador de serviços" style="rounded=0;whiteSpace=wrap;html=1;fillColor=none;rotation=-90;" vertex="1" parent="1">
          <mxGeometry x="-6.64" y="166.47" width="202.24" height="30" as="geometry" />
        </mxCell>
        <mxCell id="NIhlScBV0QvWfO8qGJx1-7" value="Sistema" style="rounded=0;whiteSpace=wrap;html=1;fillColor=none;rotation=-90;" vertex="1" parent="1">
          <mxGeometry x="-94.03" y="455.96" width="377.19" height="30" as="geometry" />
        </mxCell>
        <mxCell id="NIhlScBV0QvWfO8qGJx1-8" style="edgeStyle=orthogonalEdgeStyle;rounded=0;orthogonalLoop=1;jettySize=auto;html=1;exitX=0.5;exitY=1;exitDx=0;exitDy=0;" edge="1" parent="1">
          <mxGeometry relative="1" as="geometry">
            <mxPoint x="660.9399999999999" y="705" as="sourcePoint" />
            <mxPoint x="660.88" y="705" as="targetPoint" />
          </mxGeometry>
        </mxCell>
        <mxCell id="NIhlScBV0QvWfO8qGJx1-17" value="" style="edgeStyle=orthogonalEdgeStyle;rounded=0;orthogonalLoop=1;jettySize=auto;html=1;" edge="1" parent="1" source="NIhlScBV0QvWfO8qGJx1-12" target="NIhlScBV0QvWfO8qGJx1-16">
          <mxGeometry relative="1" as="geometry" />
        </mxCell>
        <mxCell id="NIhlScBV0QvWfO8qGJx1-12" value="Processamento dos dados" style="rounded=1;whiteSpace=wrap;html=1;fillColor=none;" vertex="1" parent="1">
          <mxGeometry x="340" y="348.12" width="120" height="60" as="geometry" />
        </mxCell>
        <mxCell id="NIhlScBV0QvWfO8qGJx1-23" value="" style="edgeStyle=orthogonalEdgeStyle;rounded=0;orthogonalLoop=1;jettySize=auto;html=1;" edge="1" parent="1" source="NIhlScBV0QvWfO8qGJx1-16" target="NIhlScBV0QvWfO8qGJx1-21">
          <mxGeometry relative="1" as="geometry" />
        </mxCell>
        <mxCell id="NIhlScBV0QvWfO8qGJx1-24" value="Sim" style="edgeLabel;html=1;align=center;verticalAlign=middle;resizable=0;points=[];" vertex="1" connectable="0" parent="NIhlScBV0QvWfO8qGJx1-23">
          <mxGeometry x="0.0441" relative="1" as="geometry">
            <mxPoint as="offset" />
          </mxGeometry>
        </mxCell>
        <mxCell id="NIhlScBV0QvWfO8qGJx1-31" value="" style="edgeStyle=orthogonalEdgeStyle;rounded=0;orthogonalLoop=1;jettySize=auto;html=1;" edge="1" parent="1" source="NIhlScBV0QvWfO8qGJx1-16" target="NIhlScBV0QvWfO8qGJx1-30">
          <mxGeometry relative="1" as="geometry" />
        </mxCell>
        <mxCell id="NIhlScBV0QvWfO8qGJx1-32" value="Não" style="edgeLabel;html=1;align=center;verticalAlign=middle;resizable=0;points=[];" vertex="1" connectable="0" parent="NIhlScBV0QvWfO8qGJx1-31">
          <mxGeometry x="-0.4411" y="-2" relative="1" as="geometry">
            <mxPoint as="offset" />
          </mxGeometry>
        </mxCell>
        <mxCell id="NIhlScBV0QvWfO8qGJx1-16" value="Possui antecedentes criminais?" style="rhombus;whiteSpace=wrap;html=1;fillColor=none;" vertex="1" parent="1">
          <mxGeometry x="498.12" y="328.12" width="110" height="100" as="geometry" />
        </mxCell>
        <mxCell id="NIhlScBV0QvWfO8qGJx1-25" value="" style="edgeStyle=orthogonalEdgeStyle;rounded=0;orthogonalLoop=1;jettySize=auto;html=1;" edge="1" parent="1" source="NIhlScBV0QvWfO8qGJx1-21" target="NIhlScBV0QvWfO8qGJx1-22">
          <mxGeometry relative="1" as="geometry" />
        </mxCell>
        <mxCell id="NIhlScBV0QvWfO8qGJx1-21" value="Mensagem informando que o cadastro não poderá ser feito" style="rounded=1;whiteSpace=wrap;html=1;fillColor=none;" vertex="1" parent="1">
          <mxGeometry x="488.12" y="155" width="120" height="60" as="geometry" />
        </mxCell>
        <mxCell id="NIhlScBV0QvWfO8qGJx1-27" value="" style="edgeStyle=orthogonalEdgeStyle;rounded=0;orthogonalLoop=1;jettySize=auto;html=1;" edge="1" parent="1" source="NIhlScBV0QvWfO8qGJx1-22" target="NIhlScBV0QvWfO8qGJx1-26">
          <mxGeometry relative="1" as="geometry" />
        </mxCell>
        <mxCell id="NIhlScBV0QvWfO8qGJx1-22" value="&lt;font style=&quot;font-size: 10px;&quot;&gt;Armazenamento do cadastro do prestador no BD com os prestadores inaptos para a plataforma&lt;/font&gt;" style="rounded=1;whiteSpace=wrap;html=1;fillColor=none;" vertex="1" parent="1">
          <mxGeometry x="620" y="505" width="120" height="60" as="geometry" />
        </mxCell>
        <mxCell id="NIhlScBV0QvWfO8qGJx1-26" value="Fim do cadastro" style="ellipse;whiteSpace=wrap;html=1;aspect=fixed;fillColor=none;" vertex="1" parent="1">
          <mxGeometry x="790" y="490" width="90" height="90" as="geometry" />
        </mxCell>
        <mxCell id="NIhlScBV0QvWfO8qGJx1-34" value="" style="edgeStyle=orthogonalEdgeStyle;rounded=0;orthogonalLoop=1;jettySize=auto;html=1;" edge="1" parent="1" source="NIhlScBV0QvWfO8qGJx1-30" target="NIhlScBV0QvWfO8qGJx1-33">
          <mxGeometry relative="1" as="geometry" />
        </mxCell>
        <mxCell id="NIhlScBV0QvWfO8qGJx1-36" value="Não" style="edgeLabel;html=1;align=center;verticalAlign=middle;resizable=0;points=[];" vertex="1" connectable="0" parent="NIhlScBV0QvWfO8qGJx1-34">
          <mxGeometry x="-0.1923" y="3" relative="1" as="geometry">
            <mxPoint as="offset" />
          </mxGeometry>
        </mxCell>
        <mxCell id="NIhlScBV0QvWfO8qGJx1-39" value="" style="edgeStyle=orthogonalEdgeStyle;rounded=0;orthogonalLoop=1;jettySize=auto;html=1;" edge="1" parent="1" source="NIhlScBV0QvWfO8qGJx1-30">
          <mxGeometry relative="1" as="geometry">
            <mxPoint x="1130" y="378.1199999999999" as="targetPoint" />
          </mxGeometry>
        </mxCell>
        <mxCell id="NIhlScBV0QvWfO8qGJx1-44" value="Sim" style="edgeLabel;html=1;align=center;verticalAlign=middle;resizable=0;points=[];" vertex="1" connectable="0" parent="NIhlScBV0QvWfO8qGJx1-39">
          <mxGeometry x="0.2069" y="3" relative="1" as="geometry">
            <mxPoint as="offset" />
          </mxGeometry>
        </mxCell>
        <mxCell id="NIhlScBV0QvWfO8qGJx1-30" value="Está apto para prestar o serviço selecionado?" style="rhombus;whiteSpace=wrap;html=1;fillColor=none;" vertex="1" parent="1">
          <mxGeometry x="950" y="328.12" width="110" height="100" as="geometry" />
        </mxCell>
        <mxCell id="NIhlScBV0QvWfO8qGJx1-37" style="edgeStyle=orthogonalEdgeStyle;rounded=0;orthogonalLoop=1;jettySize=auto;html=1;exitX=0.5;exitY=1;exitDx=0;exitDy=0;entryX=0;entryY=0.5;entryDx=0;entryDy=0;" edge="1" parent="1" source="NIhlScBV0QvWfO8qGJx1-33" target="NIhlScBV0QvWfO8qGJx1-1">
          <mxGeometry relative="1" as="geometry">
            <Array as="points">
              <mxPoint x="1005" y="610" />
              <mxPoint x="168" y="610" />
              <mxPoint x="168" y="185" />
            </Array>
          </mxGeometry>
        </mxCell>
        <mxCell id="NIhlScBV0QvWfO8qGJx1-33" value="Solicitação para reenviar documentos ou alterar o serviço" style="rounded=1;whiteSpace=wrap;html=1;fillColor=none;" vertex="1" parent="1">
          <mxGeometry x="945" y="505" width="120" height="60" as="geometry" />
        </mxCell>
        <mxCell id="NIhlScBV0QvWfO8qGJx1-46" value="" style="edgeStyle=orthogonalEdgeStyle;rounded=0;orthogonalLoop=1;jettySize=auto;html=1;" edge="1" parent="1" source="NIhlScBV0QvWfO8qGJx1-40" target="NIhlScBV0QvWfO8qGJx1-45">
          <mxGeometry relative="1" as="geometry" />
        </mxCell>
        <mxCell id="NIhlScBV0QvWfO8qGJx1-40" value="&lt;font style=&quot;font-size: 10px;&quot;&gt;Armazenamento do cadastro do prestador no BD com os prestadores&lt;/font&gt;" style="rounded=1;whiteSpace=wrap;html=1;fillColor=none;" vertex="1" parent="1">
          <mxGeometry x="1130" y="348.12" width="120" height="60" as="geometry" />
        </mxCell>
        <mxCell id="NIhlScBV0QvWfO8qGJx1-54" value="" style="edgeStyle=orthogonalEdgeStyle;rounded=0;orthogonalLoop=1;jettySize=auto;html=1;" edge="1" parent="1" source="NIhlScBV0QvWfO8qGJx1-45" target="NIhlScBV0QvWfO8qGJx1-53">
          <mxGeometry relative="1" as="geometry" />
        </mxCell>
        <mxCell id="NIhlScBV0QvWfO8qGJx1-45" value="Mensagem informando que o cadastro foi concluido" style="rounded=1;whiteSpace=wrap;html=1;fillColor=none;" vertex="1" parent="1">
          <mxGeometry x="1130" y="155" width="120" height="60" as="geometry" />
        </mxCell>
        <mxCell id="NIhlScBV0QvWfO8qGJx1-50" value="" style="endArrow=none;dashed=1;html=1;dashPattern=1 3;strokeWidth=2;rounded=0;exitX=0;exitY=0.345;exitDx=0;exitDy=0;entryX=0.999;entryY=0.345;entryDx=0;entryDy=0;entryPerimeter=0;exitPerimeter=0;" edge="1" parent="1" source="NIhlScBV0QvWfO8qGJx1-3" target="NIhlScBV0QvWfO8qGJx1-3">
          <mxGeometry width="50" height="50" relative="1" as="geometry">
            <mxPoint x="710" y="340" as="sourcePoint" />
            <mxPoint x="760" y="290" as="targetPoint" />
          </mxGeometry>
        </mxCell>
        <mxCell id="NIhlScBV0QvWfO8qGJx1-52" style="edgeStyle=orthogonalEdgeStyle;rounded=0;orthogonalLoop=1;jettySize=auto;html=1;exitX=1;exitY=0.5;exitDx=0;exitDy=0;entryX=-0.003;entryY=0.568;entryDx=0;entryDy=0;entryPerimeter=0;" edge="1" parent="1" source="NIhlScBV0QvWfO8qGJx1-1" target="NIhlScBV0QvWfO8qGJx1-12">
          <mxGeometry relative="1" as="geometry" />
        </mxCell>
        <mxCell id="NIhlScBV0QvWfO8qGJx1-53" value="Fim do cadastro" style="ellipse;whiteSpace=wrap;html=1;aspect=fixed;fillColor=none;" vertex="1" parent="1">
          <mxGeometry x="1300" y="140.00000000000003" width="90" height="90" as="geometry" />
        </mxCell>
      </root>
    </mxGraphModel>
  </diagram>
</mxfile>
